<svg xmlns="http://www.w3.org/2000/svg" viewBox="0 0 64 80">
  <line x1="14" y1="11" x2="50" y2="11" stroke="#1B1A17" stroke-width="2.2" stroke-linecap="round" />
  <path d="M 14 11 C 5 9 0 13 3 18 C 6 23 14 23 14 16 C 14 11 8 11 8 16 C 8 19 11 18 11 16"
        fill="none" stroke="#1B1A17" stroke-width="1.9"
        stroke-linecap="round" stroke-linejoin="round" />
  <path d="M 50 11 C 59 9 64 13 61 18 C 58 23 50 23 50 16 C 50 11 56 11 56 16 C 56 19 53 18 53 16"
        fill="none" stroke="#1B1A17" stroke-width="1.9"
        stroke-linecap="round" stroke-linejoin="round" />
  <path d="M 17 19 Q 32 22 47 19" fill="none" stroke="#1B1A17" stroke-width="1.8" stroke-linecap="round" />
  <path d="M 22 22 V 54 Q 22 60 18 62 V 66" fill="none" stroke="#1B1A17" stroke-width="1.9" stroke-linecap="round" stroke-linejoin="round" />
  <path d="M 32 22 V 66" fill="none" stroke="#1B1A17" stroke-width="1.9" stroke-linecap="round" />
  <path d="M 42 22 V 54 Q 42 60 46 62 V 66" fill="none" stroke="#1B1A17" stroke-width="1.9" stroke-linecap="round" stroke-linejoin="round" />
  <circle cx="18" cy="69" r="2.4" fill="none" stroke="#8C6F4A" stroke-width="1.6" />
  <circle cx="32" cy="69" r="2.4" fill="none" stroke="#8C6F4A" stroke-width="1.6" />
  <circle cx="46" cy="69" r="2.4" fill="none" stroke="#8C6F4A" stroke-width="1.6" />
  <circle cx="18" cy="69" r="0.8" fill="#8C6F4A" />
  <circle cx="32" cy="69" r="0.8" fill="#8C6F4A" />
  <circle cx="46" cy="69" r="0.8" fill="#8C6F4A" />
</svg>
